<mxfile host="app.diagrams.net" agent="Mozilla/5.0 (Windows NT 10.0; Win64; x64) AppleWebKit/537.36 (KHTML, like Gecko) Chrome/132.0.0.0 Safari/537.36" version="26.0.14">
  <diagram name="Page-1" id="p4OqUVKIKLKy4S41-Y2E">
    <mxGraphModel dx="291" dy="538" grid="1" gridSize="10" guides="1" tooltips="1" connect="1" arrows="1" fold="1" page="1" pageScale="1" pageWidth="827" pageHeight="1169" math="0" shadow="0">
      <root>
        <mxCell id="0" />
        <mxCell id="1" parent="0" />
        <mxCell id="_71Ep8L8uYBSyq0sibys-1" value="Kragstasie" style="swimlane;childLayout=stackLayout;horizontal=1;startSize=50;horizontalStack=0;rounded=1;fontSize=14;fontStyle=0;strokeWidth=2;resizeParent=0;resizeLast=1;shadow=0;dashed=0;align=center;arcSize=4;whiteSpace=wrap;html=1;" vertex="1" parent="1">
          <mxGeometry x="100" y="160" width="160" height="150" as="geometry" />
        </mxCell>
        <mxCell id="_71Ep8L8uYBSyq0sibys-2" value="+KRAG_KODE {PK}&lt;div&gt;+KRAG_NAAM&lt;/div&gt;&lt;div&gt;+KRAG_PROVINSIE&lt;/div&gt;&lt;div&gt;+KRAG_TIPE&lt;/div&gt;&lt;div&gt;+KRAG_KOORDINATE&lt;/div&gt;&lt;div&gt;+ING_KODE {PK, FK}&lt;/div&gt;" style="align=left;strokeColor=none;fillColor=none;spacingLeft=4;fontSize=12;verticalAlign=top;resizable=0;rotatable=0;part=1;html=1;" vertex="1" parent="_71Ep8L8uYBSyq0sibys-1">
          <mxGeometry y="50" width="160" height="100" as="geometry" />
        </mxCell>
        <mxCell id="_71Ep8L8uYBSyq0sibys-3" value="Ingeneur" style="swimlane;childLayout=stackLayout;horizontal=1;startSize=50;horizontalStack=0;rounded=1;fontSize=14;fontStyle=0;strokeWidth=2;resizeParent=0;resizeLast=1;shadow=0;dashed=0;align=center;arcSize=4;whiteSpace=wrap;html=1;" vertex="1" parent="1">
          <mxGeometry x="440" y="160" width="160" height="130" as="geometry" />
        </mxCell>
        <mxCell id="_71Ep8L8uYBSyq0sibys-4" value="+ING_KODE {PK}&lt;br&gt;+ING_VAN&lt;br&gt;+ING_NAAM&lt;div&gt;+ING_VOORL&lt;/div&gt;&lt;div&gt;+ING_TEL&lt;/div&gt;" style="align=left;strokeColor=none;fillColor=none;spacingLeft=4;fontSize=12;verticalAlign=top;resizable=0;rotatable=0;part=1;html=1;" vertex="1" parent="_71Ep8L8uYBSyq0sibys-3">
          <mxGeometry y="50" width="160" height="80" as="geometry" />
        </mxCell>
        <mxCell id="_71Ep8L8uYBSyq0sibys-5" value="" style="fontSize=12;html=1;endArrow=ERmandOne;startArrow=ERoneToMany;rounded=0;exitX=1;exitY=0.25;exitDx=0;exitDy=0;startFill=0;endFill=0;" edge="1" parent="1" source="_71Ep8L8uYBSyq0sibys-2">
          <mxGeometry width="100" height="100" relative="1" as="geometry">
            <mxPoint x="310" y="280" as="sourcePoint" />
            <mxPoint x="440" y="228" as="targetPoint" />
          </mxGeometry>
        </mxCell>
      </root>
    </mxGraphModel>
  </diagram>
</mxfile>
